<?xml version="1.0" encoding="utf-8"?>
<!-- Generator: Adobe Illustrator 19.2.1, SVG Export Plug-In . SVG Version: 6.00 Build 0)  -->
<!DOCTYPE svg PUBLIC "-//W3C//DTD SVG 1.1//EN" "http://www.w3.org/Graphics/SVG/1.1/DTD/svg11.dtd">
<svg version="1.1" id="Ebene_1" xmlns="http://www.w3.org/2000/svg" xmlns:xlink="http://www.w3.org/1999/xlink" x="0px" y="0px"
	 viewBox="0 0 200 140" style="enable-background:new 0 0 200 140;" xml:space="preserve">
<style type="text/css">
	.st0{fill:#FFFFFF;}
</style>
<path class="st0" d="M188,28c0-11-9-20-20-20H32c-11,0-20,9-20,20v83c0,11,9,20,20,20h136c11,0,20-9,20-20V28z M159.4,24L99.7,74.8
	L39.9,24H159.4z M167.7,114h-136c-2.2,0-3.7-1.5-3.7-3.7V34.3l66.7,56.8c1.5,1.3,3.3,1.9,5.1,1.9s3.8-0.6,5.3-1.9L172,34.3v76.1
	C172,112.5,169.9,114,167.7,114z"/>
</svg>
