<?xml version="1.0" encoding="utf-8"?>
<!-- Generator: Adobe Illustrator 16.0.4, SVG Export Plug-In . SVG Version: 6.00 Build 0)  -->
<!DOCTYPE svg PUBLIC "-//W3C//DTD SVG 1.1//EN" "http://www.w3.org/Graphics/SVG/1.1/DTD/svg11.dtd">
<svg version="1.1" id="Ebene_1" xmlns="http://www.w3.org/2000/svg" xmlns:xlink="http://www.w3.org/1999/xlink" x="0px" y="0px"
	 width="660px" height="195px" viewBox="0 0 660 195" enable-background="new 0 0 660 195" xml:space="preserve">
<g>
	<path d="M25.208,80.299h8.547V27.628h-8.547V26.55h14.631c0.616,0,1.232-0.012,1.848-0.038c0.616-0.025,1.232-0.064,1.848-0.116
		c0.616,0,1.232-0.012,1.848-0.038c0.616-0.025,1.232-0.038,1.848-0.038c3.028,0,5.698,0.167,8.008,0.5
		c2.31,0.335,4.466,1.297,6.468,2.888c1.796,1.386,3.067,2.953,3.812,4.697c0.743,1.746,1.116,3.389,1.116,4.929
		c0,0.77-0.142,1.759-0.423,2.964c-0.283,1.207-0.899,2.439-1.848,3.696c-0.951,1.259-2.323,2.414-4.12,3.466
		c-1.798,1.053-4.185,1.759-7.162,2.117v0.154c0.821,0.104,1.937,0.296,3.35,0.577c1.412,0.283,2.849,0.758,4.312,1.425
		c1.463,0.668,2.811,1.554,4.042,2.656c1.232,1.104,2.104,2.529,2.618,4.274c0.308,1.027,0.526,2.194,0.655,3.504
		c0.127,1.309,0.231,2.656,0.308,4.042c0.077,1.387,0.154,2.722,0.231,4.005c0.077,1.283,0.218,2.361,0.423,3.233
		c0.308,1.336,0.795,2.541,1.463,3.619c0.667,1.078,1.745,1.617,3.234,1.617c0.667,0,1.36-0.127,2.079-0.385
		c0.718-0.256,1.36-0.666,1.925-1.232l0.693,0.848c-0.257,0.205-0.552,0.423-0.886,0.654c-0.334,0.231-0.758,0.45-1.271,0.654
		c-0.514,0.205-1.143,0.372-1.886,0.501c-0.745,0.127-1.656,0.192-2.734,0.192c-2.054,0-3.761-0.258-5.121-0.771
		c-1.361-0.512-2.452-1.271-3.273-2.271c-0.822-1.001-1.424-2.232-1.81-3.696c-0.385-1.463-0.654-3.169-0.809-5.12l-0.539-7.008
		c-0.206-2.566-0.719-4.568-1.54-6.006c-0.822-1.437-1.784-2.489-2.888-3.157c-1.104-0.667-2.246-1.065-3.427-1.193
		c-1.181-0.128-2.208-0.193-3.08-0.193h-7.7v27.799h8.547v1.078H25.208V80.299z M41.456,51.422h7.084
		c1.437,0,2.746-0.179,3.927-0.539c1.18-0.358,2.194-0.987,3.042-1.886s1.501-2.118,1.963-3.658c0.462-1.54,0.693-3.49,0.693-5.853
		c0-2.668-0.347-4.812-1.04-6.43c-0.693-1.617-1.592-2.836-2.695-3.657c-1.104-0.821-2.336-1.36-3.696-1.617
		c-1.361-0.257-2.708-0.385-4.042-0.385c-0.924,0-1.861,0.013-2.811,0.038c-0.951,0.026-1.759,0.09-2.426,0.192V51.422z"/>
	<path d="M78.57,80.299h6.776l20.792-55.135h1.848l20.945,55.135h6.854v1.078h-23.717v-1.078h8.547l-8.085-21.407H94.665
		l-8.085,21.407h8.547v1.078H78.57V80.299z M103.597,35.405l-8.47,22.408h16.941L103.597,35.405z"/>
	<path d="M138.172,80.299h8.547V27.628h-8.547V26.55h24.795v1.078h-8.547v52.671h13.707c4.517,0,8.059-1.411,10.626-4.235
		c2.566-2.822,4.44-6.673,5.622-11.551h0.847v16.864h-47.05V80.299z"/>
	<path d="M190.997,80.299h8.547V27.628h-8.547V26.55h44.046v13.322h-0.847c-0.667-2.003-1.386-3.761-2.156-5.275
		c-0.77-1.514-1.694-2.797-2.772-3.85c-1.078-1.052-2.362-1.835-3.85-2.349c-1.49-0.513-3.286-0.771-5.39-0.771h-12.783v24.949
		h5.005c1.694,0,3.13-0.153,4.312-0.462c1.18-0.308,2.195-0.886,3.042-1.732c0.847-0.847,1.565-2.002,2.156-3.465
		c0.59-1.464,1.167-3.35,1.732-5.66h0.847v23.948h-0.847c-0.359-1.488-0.731-2.926-1.116-4.312
		c-0.385-1.386-0.924-2.618-1.617-3.696s-1.617-1.937-2.772-2.579c-1.155-0.642-2.657-0.963-4.505-0.963h-6.237v26.644h8.547v1.078
		h-24.795V80.299z"/>
	<path d="M285.634,80.299h8.547V27.628h-8.547V26.55h44.046v13.322h-0.847c-0.668-2.003-1.387-3.761-2.156-5.275
		c-0.771-1.514-1.694-2.797-2.772-3.85c-1.078-1.052-2.361-1.835-3.85-2.349c-1.49-0.513-3.286-0.771-5.391-0.771h-12.783v24.949
		h5.005c1.694,0,3.13-0.153,4.312-0.462c1.18-0.308,2.195-0.886,3.042-1.732c0.847-0.847,1.565-2.002,2.156-3.465
		c0.59-1.464,1.167-3.35,1.732-5.66h0.848v23.948h-0.848c-0.359-1.488-0.731-2.926-1.116-4.312
		c-0.385-1.386-0.924-2.618-1.617-3.696s-1.617-1.937-2.772-2.579c-1.155-0.642-2.657-0.963-4.505-0.963h-6.237v26.644h8.547v1.078
		h-24.795V80.299z"/>
	<path d="M337.149,80.299h8.547V27.628h-8.547V26.55h14.631c0.615,0,1.231-0.012,1.848-0.038c0.616-0.025,1.232-0.064,1.848-0.116
		c0.616,0,1.232-0.012,1.849-0.038c0.616-0.025,1.232-0.038,1.848-0.038c3.028,0,5.698,0.167,8.009,0.5
		c2.311,0.335,4.466,1.297,6.469,2.888c1.796,1.386,3.066,2.953,3.812,4.697c0.743,1.746,1.116,3.389,1.116,4.929
		c0,0.77-0.142,1.759-0.424,2.964c-0.282,1.207-0.898,2.439-1.848,3.696c-0.95,1.259-2.323,2.414-4.12,3.466
		c-1.797,1.053-4.185,1.759-7.161,2.117v0.154c0.82,0.104,1.938,0.296,3.35,0.577c1.411,0.283,2.85,0.758,4.312,1.425
		c1.463,0.668,2.811,1.554,4.043,2.656c1.231,1.104,2.104,2.529,2.618,4.274c0.308,1.027,0.525,2.194,0.654,3.504
		c0.127,1.309,0.23,2.656,0.308,4.042c0.077,1.387,0.154,2.722,0.231,4.005s0.218,2.361,0.424,3.233
		c0.308,1.336,0.795,2.541,1.463,3.619c0.666,1.078,1.744,1.617,3.234,1.617c0.666,0,1.359-0.127,2.079-0.385
		c0.718-0.256,1.359-0.666,1.925-1.232l0.693,0.848c-0.258,0.205-0.553,0.423-0.886,0.654c-0.335,0.231-0.758,0.45-1.271,0.654
		c-0.514,0.205-1.144,0.372-1.887,0.501c-0.745,0.127-1.656,0.192-2.733,0.192c-2.055,0-3.762-0.258-5.121-0.771
		c-1.361-0.512-2.452-1.271-3.272-2.271c-0.822-1.001-1.425-2.232-1.81-3.696c-0.386-1.463-0.655-3.169-0.809-5.12l-0.539-7.008
		c-0.206-2.566-0.72-4.568-1.54-6.006c-0.822-1.437-1.785-2.489-2.888-3.157c-1.104-0.667-2.247-1.065-3.427-1.193
		c-1.182-0.128-2.208-0.193-3.08-0.193h-7.701v27.799h8.548v1.078h-24.795V80.299z M353.396,51.422h7.085
		c1.437,0,2.745-0.179,3.927-0.539c1.181-0.358,2.195-0.987,3.042-1.886s1.502-2.118,1.964-3.658s0.692-3.49,0.692-5.853
		c0-2.668-0.346-4.812-1.039-6.43s-1.592-2.836-2.695-3.657c-1.104-0.821-2.337-1.36-3.696-1.617
		c-1.36-0.257-2.708-0.385-4.043-0.385c-0.924,0-1.861,0.013-2.811,0.038c-0.95,0.026-1.759,0.09-2.426,0.192V51.422z"/>
	<path d="M392.899,80.299h8.547V27.628h-8.547V26.55h44.046v13.322h-0.847c-0.668-2.003-1.387-3.761-2.156-5.275
		c-0.771-1.514-1.694-2.797-2.772-3.85c-1.078-1.052-2.361-1.835-3.85-2.349c-1.49-0.513-3.286-0.771-5.391-0.771h-12.783v23.794
		h5.006c1.694,0,3.131-0.153,4.312-0.462c1.18-0.308,2.194-0.885,3.041-1.732c0.848-0.847,1.565-2.002,2.156-3.465
		c0.59-1.463,1.167-3.35,1.732-5.66h0.848v23.948h-0.848c-0.359-1.488-0.731-2.926-1.116-4.312
		c-0.385-1.387-0.924-2.618-1.617-3.696s-1.617-1.938-2.772-2.58c-1.154-0.642-2.656-0.963-4.505-0.963h-6.237v27.799H423.7
		c2.823,0,5.172-0.603,7.046-1.81c1.874-1.205,3.4-2.644,4.582-4.312c1.181-1.667,2.053-3.4,2.618-5.197
		c0.564-1.797,0.924-3.285,1.078-4.467h0.847v16.864h-46.972V80.299z"/>
	<path d="M446.494,26.55h24.795v1.078h-8.547v37.193c0,3.08,0.27,5.687,0.809,7.815c0.539,2.131,1.348,3.851,2.426,5.159
		c1.077,1.31,2.412,2.247,4.004,2.811c1.591,0.566,3.413,0.848,5.467,0.848c2.875,0,5.416-0.424,7.624-1.271
		c2.206-0.848,4.106-2.349,5.698-4.505c0.513-0.667,0.962-1.334,1.348-2.002c0.385-0.667,0.718-1.45,1.001-2.349
		c0.281-0.897,0.5-1.976,0.654-3.234c0.154-1.258,0.231-2.811,0.231-4.659V27.628h-8.548V26.55h18.25v1.078h-8.548v37.347
		c0,2.156-0.23,4.12-0.692,5.892c-0.462,1.771-1.413,3.606-2.85,5.506c-1.386,1.848-3.311,3.337-5.775,4.466
		c-2.464,1.129-5.725,1.694-9.779,1.694c-6.16,0-10.871-1.514-14.13-4.544c-3.261-3.028-4.89-7.674-4.89-13.938V27.628h-8.548V26.55
		z"/>
	<path d="M505.093,80.299h8.548V27.628h-8.548V26.55h16.479l26.027,41.968h0.154v-40.89h-8.548V26.55h18.25v1.078h-8.547v54.827
		h-1.54l-32.419-51.67h-0.154v49.514h8.548v1.078h-18.25V80.299z"/>
	<path d="M561.536,80.299h8.547V27.628h-8.547V26.55h14.322c0.719,0,1.437-0.012,2.156-0.038c0.719-0.025,1.437-0.064,2.156-0.116
		c0.718,0,1.437-0.012,2.156-0.038c0.718-0.025,1.437-0.038,2.156-0.038c1.54,0,2.912,0.026,4.119,0.076
		c1.206,0.052,2.336,0.143,3.389,0.27c1.051,0.129,2.053,0.309,3.003,0.539c0.949,0.231,1.964,0.527,3.042,0.886
		c3.13,1.027,5.839,2.4,8.123,4.12c2.284,1.721,4.159,3.709,5.622,5.968c1.463,2.26,2.541,4.724,3.233,7.393
		c0.693,2.67,1.04,5.467,1.04,8.394c0,3.388-0.411,6.43-1.232,9.125c-0.821,2.694-1.951,5.082-3.388,7.161
		c-1.438,2.079-3.119,3.877-5.044,5.391c-1.925,1.515-3.992,2.733-6.199,3.657c-1.231,0.565-2.4,1.001-3.503,1.309
		c-1.104,0.309-2.233,0.539-3.389,0.693s-2.426,0.257-3.812,0.309c-1.386,0.05-2.978,0.076-4.774,0.076
		c-0.77,0-1.592-0.013-2.464-0.038c-0.874-0.026-1.746-0.065-2.618-0.115c-0.874-0.052-1.732-0.091-2.58-0.116
		c-0.847-0.026-1.655-0.038-2.426-0.038h-13.09V80.299z M577.783,80.299c0.873,0.104,1.887,0.181,3.042,0.231
		c1.155,0.052,2.426,0.076,3.812,0.076c1.745,0,3.478-0.089,5.198-0.27c1.719-0.179,3.361-0.563,4.928-1.154
		c1.565-0.59,3.028-1.437,4.39-2.541c1.359-1.104,2.579-2.554,3.657-4.352c1.643-2.771,2.784-5.607,3.427-8.509
		c0.642-2.899,0.963-6.07,0.963-9.51c0-4.055-0.385-7.739-1.155-11.05c-0.77-3.312-2.04-6.134-3.812-8.471
		c-1.771-2.336-4.12-4.146-7.046-5.429s-6.545-1.925-10.857-1.925c-1.284,0-2.452,0.026-3.504,0.076
		c-1.053,0.052-2.067,0.104-3.042,0.154V80.299z"/>
</g>
<g>
	<rect x="25.058" y="98.068" fill="#B3B3B3" width="591.128" height="32.629"/>
</g>
<g>
	<path d="M83.475,104.012h12.588v2.546H86.19v6.279h9.193v2.546H86.19v8.656h-2.715V104.012z"/>
	<path d="M136.06,124.548c-1.528,0-2.933-0.269-4.215-0.806c-1.283-0.537-2.381-1.277-3.295-2.221
		c-0.915-0.942-1.631-2.056-2.15-3.338c-0.519-1.282-0.778-2.668-0.778-4.158c0-1.489,0.259-2.876,0.778-4.158
		c0.519-1.282,1.235-2.395,2.15-3.338c0.915-0.942,2.013-1.683,3.295-2.221c1.282-0.537,2.687-0.806,4.215-0.806
		c1.527,0,2.932,0.269,4.215,0.806c1.282,0.538,2.38,1.278,3.295,2.221c0.915,0.943,1.631,2.056,2.15,3.338
		c0.518,1.282,0.778,2.669,0.778,4.158c0,1.49-0.26,2.876-0.778,4.158c-0.519,1.282-1.235,2.396-2.15,3.338
		c-0.915,0.943-2.013,1.684-3.295,2.221C138.992,124.279,137.587,124.548,136.06,124.548z M136.06,122.002
		c1.15,0,2.188-0.212,3.111-0.636c0.924-0.425,1.716-0.995,2.376-1.712c0.66-0.716,1.169-1.56,1.527-2.531
		c0.358-0.972,0.538-2.004,0.538-3.098s-0.18-2.126-0.538-3.098c-0.358-0.971-0.868-1.814-1.527-2.531
		c-0.661-0.717-1.453-1.287-2.376-1.712c-0.924-0.424-1.961-0.636-3.111-0.636c-1.15,0-2.188,0.212-3.112,0.636
		c-0.924,0.425-1.716,0.995-2.376,1.712c-0.66,0.717-1.169,1.561-1.527,2.531c-0.359,0.972-0.538,2.004-0.538,3.098
		s0.179,2.126,0.538,3.098c0.358,0.972,0.867,1.815,1.527,2.531c0.66,0.717,1.452,1.287,2.376,1.712
		C133.872,121.79,134.91,122.002,136.06,122.002z"/>
	<path d="M186.75,124.548c-1.528,0-2.933-0.269-4.215-0.806c-1.283-0.537-2.381-1.277-3.295-2.221
		c-0.915-0.942-1.631-2.056-2.15-3.338c-0.519-1.282-0.778-2.668-0.778-4.158c0-1.489,0.259-2.876,0.778-4.158
		c0.519-1.282,1.235-2.395,2.15-3.338c0.915-0.942,2.013-1.683,3.295-2.221c1.282-0.537,2.687-0.806,4.215-0.806
		c1.527,0,2.932,0.269,4.215,0.806c1.282,0.538,2.38,1.278,3.295,2.221c0.915,0.943,1.631,2.056,2.15,3.338
		c0.518,1.282,0.778,2.669,0.778,4.158c0,1.49-0.26,2.876-0.778,4.158c-0.519,1.282-1.235,2.396-2.15,3.338
		c-0.915,0.943-2.013,1.684-3.295,2.221C189.683,124.279,188.278,124.548,186.75,124.548z M186.75,122.002
		c1.15,0,2.188-0.212,3.111-0.636c0.924-0.425,1.716-0.995,2.376-1.712c0.66-0.716,1.169-1.56,1.527-2.531
		c0.358-0.972,0.538-2.004,0.538-3.098s-0.18-2.126-0.538-3.098c-0.358-0.971-0.868-1.814-1.527-2.531
		c-0.661-0.717-1.453-1.287-2.376-1.712c-0.924-0.424-1.961-0.636-3.111-0.636c-1.15,0-2.188,0.212-3.112,0.636
		c-0.924,0.425-1.716,0.995-2.376,1.712c-0.66,0.717-1.169,1.561-1.527,2.531c-0.359,0.972-0.538,2.004-0.538,3.098
		s0.179,2.126,0.538,3.098c0.358,0.972,0.867,1.815,1.527,2.531c0.66,0.717,1.452,1.287,2.376,1.712
		C184.562,121.79,185.6,122.002,186.75,122.002z"/>
	<path d="M227.795,104.012h6.987c1.415,0,2.654,0.16,3.72,0.48c1.065,0.321,1.99,0.75,2.772,1.287
		c0.782,0.538,1.433,1.155,1.952,1.854c0.519,0.697,0.929,1.414,1.23,2.149c0.301,0.735,0.519,1.471,0.65,2.206
		c0.132,0.736,0.198,1.415,0.198,2.037c0,1.282-0.236,2.522-0.707,3.72c-0.472,1.198-1.169,2.263-2.093,3.196
		c-0.924,0.934-2.07,1.684-3.437,2.249c-1.368,0.565-2.947,0.849-4.738,0.849h-6.534V104.012z M230.51,121.493h3.423
		c1.15,0,2.239-0.155,3.267-0.467s1.928-0.777,2.702-1.4c0.773-0.622,1.386-1.4,1.838-2.333c0.453-0.934,0.679-2.022,0.679-3.268
		c0-0.641-0.104-1.391-0.311-2.249c-0.208-0.857-0.599-1.673-1.174-2.446s-1.372-1.429-2.39-1.967
		c-1.018-0.537-2.338-0.806-3.96-0.806h-4.074V121.493z"/>
	<path d="M276.93,119.853c0.49,0.735,1.118,1.277,1.881,1.627c0.764,0.349,1.551,0.522,2.362,0.522c0.453,0,0.915-0.07,1.386-0.212
		c0.471-0.142,0.9-0.354,1.287-0.637c0.386-0.282,0.702-0.631,0.948-1.046c0.245-0.415,0.368-0.896,0.368-1.443
		c0-0.772-0.246-1.361-0.736-1.768c-0.49-0.405-1.099-0.745-1.824-1.019c-0.726-0.272-1.519-0.537-2.376-0.792
		c-0.858-0.254-1.65-0.608-2.376-1.061s-1.334-1.061-1.824-1.824c-0.491-0.764-0.736-1.797-0.736-3.098
		c0-0.584,0.127-1.207,0.382-1.867c0.255-0.66,0.655-1.263,1.203-1.811c0.546-0.547,1.249-1.004,2.107-1.372
		c0.858-0.367,1.891-0.551,3.098-0.551c1.094,0,2.14,0.15,3.14,0.452c0.999,0.302,1.876,0.915,2.63,1.839l-2.206,2.008
		c-0.34-0.527-0.821-0.951-1.443-1.272c-0.623-0.32-1.33-0.48-2.122-0.48c-0.754,0-1.382,0.099-1.881,0.297
		c-0.5,0.197-0.901,0.452-1.203,0.764c-0.302,0.311-0.514,0.646-0.636,1.004c-0.123,0.358-0.184,0.688-0.184,0.99
		c0,0.849,0.245,1.499,0.736,1.952c0.49,0.452,1.098,0.82,1.824,1.103c0.726,0.283,1.518,0.538,2.376,0.764
		c0.858,0.227,1.65,0.543,2.376,0.948c0.726,0.405,1.334,0.952,1.825,1.641c0.49,0.688,0.735,1.636,0.735,2.843
		c0,0.962-0.184,1.829-0.552,2.603s-0.863,1.424-1.485,1.951c-0.623,0.528-1.358,0.934-2.207,1.217s-1.754,0.424-2.716,0.424
		c-1.282,0-2.499-0.226-3.649-0.679c-1.15-0.452-2.065-1.149-2.744-2.093L276.93,119.853z"/>
	<path d="M323.377,106.558h-6.449v-2.546h15.615v2.546h-6.449v17.481h-2.717V106.558z"/>
	<path d="M367.307,115.496l-7.581-11.484h3.479l5.46,8.797l5.629-8.797h3.31l-7.581,11.484v8.543h-2.716V115.496z"/>
	<path d="M407.021,104.012h2.716v17.481h9.193v2.546h-11.909V104.012z"/>
	<path d="M448.858,104.012h2.716v20.027h-2.716V104.012z"/>
	<path d="M483.85,104.012h3.564l11.031,16.463h0.057v-16.463h2.716v20.027h-3.451l-11.145-16.463h-0.057v16.463h-2.716V104.012z"/>
	<path d="M550.578,112.837v9.873c-0.49,0.302-1.046,0.565-1.669,0.792c-0.622,0.226-1.268,0.42-1.938,0.579
		c-0.669,0.16-1.349,0.278-2.036,0.354c-0.688,0.074-1.335,0.112-1.938,0.112c-1.697,0-3.211-0.282-4.541-0.849
		c-1.329-0.565-2.451-1.329-3.365-2.291c-0.915-0.962-1.613-2.079-2.094-3.352c-0.48-1.273-0.722-2.617-0.722-4.031
		c0-1.489,0.26-2.876,0.778-4.158s1.235-2.395,2.149-3.338c0.915-0.942,2.014-1.683,3.296-2.221
		c1.282-0.537,2.688-0.806,4.215-0.806c1.848,0,3.356,0.23,4.525,0.692c1.17,0.463,2.15,1.099,2.942,1.909l-1.924,2.065
		c-0.83-0.792-1.707-1.344-2.631-1.654c-0.924-0.312-1.895-0.467-2.913-0.467c-1.15,0-2.188,0.212-3.111,0.636
		c-0.925,0.425-1.717,0.995-2.377,1.712s-1.169,1.561-1.527,2.531c-0.358,0.972-0.537,2.004-0.537,3.098
		c0,1.132,0.198,2.183,0.594,3.154c0.396,0.972,0.943,1.815,1.641,2.531c0.697,0.717,1.518,1.278,2.461,1.684
		s1.971,0.607,3.084,0.607c0.961,0,1.871-0.089,2.729-0.269c0.857-0.179,1.588-0.438,2.192-0.777v-5.573h-4.441v-2.546H550.578z"/>
</g>
<g>
	<rect x="158.693" y="137.436" width="323.858" height="1.418"/>
</g>
<g>
	<path d="M159.095,147.272h5.489c0.999,0,1.822,0.137,2.469,0.408c0.646,0.272,1.157,0.617,1.532,1.036
		c0.375,0.419,0.635,0.889,0.783,1.41c0.146,0.522,0.22,1.025,0.22,1.511c0,0.499-0.088,0.98-0.265,1.443
		c-0.176,0.463-0.43,0.882-0.76,1.257c-0.331,0.374-0.735,0.69-1.212,0.947c-0.478,0.258-1.01,0.415-1.598,0.474l4.431,7.12h-2.645
		l-3.968-6.877h-2.358v6.877h-2.116V147.272z M161.211,154.15h2.777c0.411,0,0.819-0.033,1.223-0.1s0.764-0.188,1.08-0.363
		c0.316-0.177,0.569-0.43,0.761-0.761c0.19-0.331,0.287-0.761,0.287-1.289c0-0.529-0.096-0.959-0.287-1.29
		c-0.191-0.33-0.445-0.584-0.761-0.761c-0.316-0.176-0.676-0.297-1.08-0.363s-0.812-0.1-1.223-0.1h-2.777V154.15z"/>
	<path d="M177.831,147.272h10.073v1.984h-7.957v4.65h7.406v1.984h-7.406v5.004h8.354v1.983h-10.47V147.272z"/>
	<path d="M195.266,160.896l8.883-11.639h-8.619v-1.984h11.264v1.984l-8.839,11.639h8.971v1.983h-11.66V160.896z"/>
	<path d="M214.928,147.272h10.073v1.984h-7.957v4.65h7.406v1.984h-7.406v5.004h8.354v1.983h-10.47V147.272z"/>
	<path d="M233.686,147.272h5.489c0.999,0,1.822,0.137,2.469,0.408c0.646,0.272,1.157,0.617,1.532,1.036
		c0.375,0.419,0.635,0.889,0.783,1.41c0.146,0.522,0.22,1.025,0.22,1.511c0,0.484-0.074,0.988-0.22,1.51
		c-0.147,0.521-0.408,0.991-0.783,1.41c-0.375,0.419-0.885,0.765-1.532,1.036c-0.647,0.272-1.47,0.408-2.469,0.408h-3.373v6.877
		h-2.116V147.272z M235.802,154.15h2.777c0.411,0,0.819-0.033,1.223-0.1s0.764-0.188,1.08-0.363c0.316-0.177,0.569-0.43,0.761-0.761
		c0.19-0.331,0.287-0.761,0.287-1.289c0-0.529-0.096-0.959-0.287-1.29c-0.191-0.33-0.445-0.584-0.761-0.761
		c-0.316-0.176-0.676-0.297-1.08-0.363s-0.812-0.1-1.223-0.1h-2.777V154.15z"/>
	<path d="M255.309,149.257h-5.025v-1.984h12.167v1.984h-5.026v13.622h-2.116V149.257z"/>
	<path d="M269.989,147.272h10.073v1.984h-7.957v4.65h7.406v1.984h-7.406v5.004h8.354v1.983h-10.47V147.272z"/>
	<path d="M288.747,147.272h2.777l8.597,12.829h0.044v-12.829h2.116v15.606h-2.689l-8.685-12.829h-0.044v12.829h-2.116V147.272z"/>
	<path d="M314.845,149.257h-5.025v-1.984h12.167v1.984h-5.025v13.622h-2.116V149.257z"/>
	<path d="M327.542,147.272h2.204l3.449,12.477h0.044l3.67-12.477h2.425l3.67,12.477h0.044l3.45-12.477h2.204l-4.541,15.606h-2.248
		l-3.77-12.74h-0.043l-3.748,12.74h-2.248L327.542,147.272z"/>
	<path d="M356.021,147.272h2.116v15.606h-2.116V147.272z"/>
	<path d="M378.283,150.646c-0.441-0.573-1-1.014-1.676-1.322s-1.374-0.463-2.094-0.463c-0.882,0-1.679,0.165-2.392,0.495
		c-0.713,0.331-1.322,0.783-1.829,1.356c-0.508,0.572-0.9,1.245-1.18,2.017s-0.419,1.598-0.419,2.479
		c0,0.823,0.133,1.602,0.396,2.337c0.265,0.734,0.646,1.381,1.146,1.939s1.109,0.999,1.83,1.322c0.72,0.323,1.535,0.485,2.446,0.485
		c0.896,0,1.683-0.184,2.358-0.551s1.249-0.882,1.72-1.543l1.785,1.344c-0.118,0.162-0.323,0.394-0.617,0.694
		c-0.294,0.302-0.684,0.604-1.168,0.904c-0.485,0.301-1.069,0.565-1.753,0.793c-0.683,0.229-1.473,0.342-2.369,0.342
		c-1.234,0-2.348-0.235-3.34-0.705c-0.991-0.47-1.837-1.087-2.534-1.852c-0.698-0.764-1.231-1.627-1.599-2.59
		s-0.551-1.937-0.551-2.921c0-1.205,0.198-2.317,0.595-3.339c0.397-1.021,0.951-1.903,1.664-2.646s1.569-1.318,2.568-1.73
		c0.999-0.411,2.102-0.617,3.307-0.617c1.028,0,2.039,0.198,3.03,0.596c0.992,0.396,1.804,1.006,2.436,1.829L378.283,150.646z"/>
	<path d="M388.202,147.272h2.116v6.745h0.176l6.899-6.745h2.954l-7.539,7.208l8.046,8.398h-3.086l-7.274-7.803h-0.176v7.803h-2.116
		V147.272z"/>
	<path d="M407.753,147.272h2.116v13.623h7.164v1.983h-9.28V147.272z"/>
	<path d="M426.291,147.272v9.566c0,0.485,0.066,0.989,0.199,1.511c0.132,0.521,0.353,1.003,0.661,1.443s0.712,0.801,1.212,1.08
		s1.117,0.419,1.852,0.419s1.352-0.14,1.852-0.419s0.904-0.64,1.213-1.08s0.528-0.922,0.661-1.443
		c0.132-0.521,0.198-1.025,0.198-1.511v-9.566h2.116v9.897c0,0.911-0.154,1.738-0.463,2.479c-0.309,0.742-0.735,1.386-1.278,1.929
		c-0.544,0.544-1.184,0.963-1.918,1.257c-0.735,0.294-1.528,0.44-2.381,0.44s-1.646-0.146-2.381-0.44
		c-0.734-0.294-1.374-0.713-1.917-1.257c-0.544-0.543-0.97-1.187-1.278-1.929c-0.309-0.741-0.463-1.568-0.463-2.479v-9.897H426.291z
		"/>
	<path d="M445.27,147.272h2.777l8.597,12.829h0.044v-12.829h2.116v15.606h-2.689l-8.685-12.829h-0.044v12.829h-2.116V147.272z"/>
	<path d="M481.397,154.15v7.692c-0.383,0.235-0.816,0.441-1.301,0.617c-0.485,0.177-0.988,0.327-1.51,0.452
		c-0.522,0.125-1.051,0.217-1.587,0.275c-0.537,0.059-1.04,0.088-1.511,0.088c-1.322,0-2.501-0.22-3.537-0.661
		c-1.036-0.44-1.911-1.036-2.623-1.785c-0.713-0.75-1.257-1.62-1.632-2.612c-0.374-0.992-0.562-2.039-0.562-3.141
		c0-1.161,0.202-2.241,0.606-3.24c0.403-0.999,0.962-1.866,1.675-2.602c0.713-0.734,1.568-1.312,2.568-1.73
		c0.999-0.418,2.094-0.628,3.284-0.628c1.439,0,2.615,0.181,3.526,0.54c0.911,0.36,1.676,0.856,2.293,1.488l-1.499,1.608
		c-0.647-0.617-1.33-1.047-2.05-1.289c-0.721-0.242-1.478-0.363-2.271-0.363c-0.896,0-1.705,0.165-2.425,0.495
		c-0.721,0.331-1.338,0.775-1.852,1.334c-0.515,0.559-0.911,1.216-1.19,1.973s-0.419,1.562-0.419,2.414
		c0,0.882,0.154,1.701,0.463,2.457c0.309,0.758,0.734,1.415,1.278,1.974s1.183,0.995,1.918,1.312
		c0.734,0.315,1.535,0.474,2.402,0.474c0.75,0,1.459-0.069,2.127-0.21c0.669-0.139,1.238-0.341,1.709-0.605v-4.343h-3.461v-1.983
		H481.397z"/>
</g>
</svg>
